# xmcd
#
# Track frame offsets:
#   150
#   12703
#   23528
#   36158
#   47971
#   61355
#   71234
#   81981
#   92873
#   104825
#   117406
#   131242
#   143589
#   156540
#   168748
#   180684
#   192481
#   204113
#   214932
#   227354
#   238083
#   253113
#
# Disc length: 3509 seconds
#
# Revision: 0
# Processed by: cddbd v1.4PL0 Copyright (c) Steve Scherf et al.
# Submitted via: uFREEDB 1.6.0
#
DISCID=510db316
DTITLE=Robbins, Marty - Singles 1954-55
DYEAR=1900
DGENRE=Country
TTITLE0=My Isle Of Golden Dreams
TTITLE1=Aloha Oe
TTITLE2=Your Heart's Turn To Break
TTITLE3=Pretty Words
TTITLE4=I'm Too Big To Cry
TTITLE5=Call Me Up
TTITLE6=It's A Pity What Money Can Do
TTITLE7=Time Goes By
TTITLE8=That's All Right
TTITLE9=Gossip
TTITLE10=God Understands
TTITLE11=Have Thine Own Way, Lord
TTITLE12=Pray For Me, Mother Of Mine
TTITLE13=Daddy Loves You
TTITLE14=It Looks Like I'm Just In Your Way
TTITLE15=I'll Love You Till The Day I Die
TTITLE16=Maybelline
TTITLE17=This Broken Heart Of Mine
TTITLE18=Pretty Mama
TTITLE19=Don't Let Me Hang Around
TTITLE20=Tennessee Toddy
TTITLE21=Mean Mama Blues
EXTD=
EXTT0=
EXTT1=
EXTT2=
EXTT3=
EXTT4=
EXTT5=
EXTT6=
EXTT7=
EXTT8=
EXTT9=
EXTT10=
EXTT11=
EXTT12=
EXTT13=
EXTT14=
EXTT15=
EXTT16=
EXTT17=
EXTT18=
EXTT19=
EXTT20=
EXTT21=
PLAYORDER=
